<?xml version="1.0" encoding="UTF-8"?>
<svg id="Layer_1" data-name="Layer 1" xmlns="http://www.w3.org/2000/svg" viewBox="0 0 123.72 123.72">
  <defs>
    <style>
      .cls-1 {
        fill: #fff;
      }
    </style>
  </defs>
  <path class="cls-1" d="M61.86,0C27.7,0,0,27.7,0,61.86s27.7,61.86,61.86,61.86,61.86-27.7,61.86-61.86S96.03,0,61.86,0ZM35.14,77.05h-9.29v-3.15h0c-.63.53-1.21,1-1.7,1.42-.5.43-1.18.86-2.02,1.28-.83.4-1.63.71-2.42.91-.78.19-1.88.31-3.29.31-2.63,0-4.81-.88-6.54-2.65-1.74-1.76-2.6-3.99-2.6-6.68,0-2.22.44-3.99,1.32-5.36.88-1.36,2.15-2.44,3.81-3.24,1.68-.81,3.67-1.37,6-1.7,2.33-.32,4.83-.57,7.51-.74v-.16c0-1.64-.61-2.77-1.81-3.4-1.21-.63-3.02-.94-5.44-.94-1.09,0-2.37.2-3.83.6-1.46.4-2.89.91-4.28,1.53h-.79v-7.21c.92-.27,2.4-.58,4.46-.94,2.05-.36,4.12-.55,6.2-.55,5.13,0,8.88.86,11.22,2.57,2.34,1.7,3.52,4.31,3.52,7.82v20.29ZM65.18,56.8h-1.21c-.37-.35-.83-.74-1.37-1.17-.54-.43-1.13-.82-1.77-1.17-.67-.38-1.44-.69-2.28-.94-.85-.26-1.8-.38-2.85-.38-2.38,0-4.22.82-5.51,2.48-1.3,1.65-1.95,3.86-1.95,6.65,0,2.98.69,5.21,2.09,6.67,1.39,1.46,3.24,2.2,5.54,2.2,1.17,0,2.2-.14,3.08-.4.89-.26,1.65-.59,2.29-.95.62-.36,1.15-.74,1.59-1.14.45-.39.83-.75,1.14-1.06h1.2v7.94c-.54.22-1.15.49-1.85.8-.7.29-1.41.54-2.14.73-.91.25-1.75.45-2.54.57-.79.13-1.83.2-3.12.2-2.46,0-4.72-.31-6.76-.93-2.04-.61-3.82-1.57-5.32-2.86-1.49-1.28-2.65-2.9-3.48-4.85-.83-1.95-1.25-4.25-1.25-6.91,0-2.85.45-5.27,1.36-7.27.9-1.99,2.12-3.63,3.67-4.93,1.49-1.23,3.23-2.15,5.24-2.74,2.01-.59,4.1-.89,6.28-.89,1.65,0,3.3.19,4.95.58,1.65.37,3.3.98,4.97,1.81v7.98ZM105.7,77.06v-14.89c0-1.47-.03-2.71-.08-3.72-.06-1-.21-1.83-.48-2.47-.27-.63-.68-1.1-1.24-1.39s-1.35-.44-2.36-.44c-.71,0-1.41.16-2.1.46-.69.32-1.45.76-2.27,1.33v21.13h-9.29v-14.89c0-1.45-.03-2.68-.09-3.7-.07-1.02-.22-1.84-.49-2.48-.27-.63-.68-1.1-1.24-1.39s-1.34-.44-2.33-.44c-.76,0-1.51.18-2.24.53-.73.36-1.44.77-2.13,1.25v21.13h-9.29v-29.78h9.29v3.29c1.51-1.3,2.95-2.3,4.29-3.02,1.35-.73,2.85-1.1,4.53-1.1,1.82,0,3.43.44,4.8,1.3,1.38.87,2.43,2.16,3.16,3.87,1.79-1.66,3.47-2.94,5.05-3.83,1.58-.89,3.19-1.35,4.81-1.35,1.38,0,2.62.22,3.71.67,1.1.45,2.02,1.1,2.79,1.99.83.96,1.45,2.09,1.87,3.41.42,1.32.63,3.04.63,5.16v19.39h-9.3Z"/>
  <path class="cls-1" d="M19.22,64.17c-.81.28-1.44.71-1.88,1.28-.45.57-.67,1.34-.67,2.27,0,1.39.38,2.34,1.12,2.87.74.52,1.84.77,3.3.77.8,0,1.62-.18,2.47-.55.84-.36,1.6-.89,2.29-1.55v-6.17c-1.56.16-2.82.3-3.78.4-.97.12-1.92.33-2.84.68Z"/>
</svg>