<?xml version="1.0" encoding="UTF-8"?>
<svg id="Layer_1" data-name="Layer 1" xmlns="http://www.w3.org/2000/svg" viewBox="0 0 1042 467.16">
  <defs>
    <style>
      .cls-1 {
        fill: #fff;
      }
    </style>
  </defs>
  <rect class="cls-1" x="249" y="28.15" width="100" height="3"/>
  <rect class="cls-1" x="51" y="186.15" width="100" height="3"/>
  <rect class="cls-1" x="51" y="396.15" width="100" height="3"/>
  <rect class="cls-1" x="249" y="239.15" width="100" height="3"/>
  <rect class="cls-1" x="398" y="28.15" width="99" height="3"/>
  <rect class="cls-1" x="398" y="239.15" width="99" height="3"/>
  <path class="cls-1" d="M377.86,309.29l7.64,23.87,7.59-23.92,4.9-.09-9.09,28.89c-.45.39-4.36.26-5.27-.04-2.54-.84-8-24.58-10.62-28.37l4.85-.35Z"/>
  <rect class="cls-1" x="645" y="239.15" width="75" height="3"/>
  <rect class="cls-1" x="645" y="396.15" width="75" height="3"/>
  <rect class="cls-1" x="472" y="396.15" width="75" height="3"/>
  <rect class="cls-1" x="918" y="396.15" width="74" height="3"/>
  <rect class="cls-1" x="918" y="239.15" width="74" height="3"/>
  <rect class="cls-1" x="225" y="396.15" width="74" height="3"/>
  <path class="cls-1" d="M356.5,42.17c13.74,11.64,13.61,31.19,0,42.96l-2.48-2.48c11.19-10.06,10.82-27.69.02-38l2.46-2.48Z"/>
  <path class="cls-1" d="M851.5,305.17c13.74,11.64,13.61,31.19,0,42.96l-2.48-2.48c11.19-10.06,10.82-27.69.02-38l2.46-2.48Z"/>
  <path class="cls-1" d="M480.5,147.17c13.44,11.67,13.44,31.28,0,42.96l-2.46-2.48c10.94-10.46,10.9-27.58,0-38l2.46-2.48Z"/>
  <path class="cls-1" d="M504.51,42.16c2.97-.62,9.15,11.55,9.8,14.18,2.8,11.26-1.07,20.76-8.83,28.81l-2.37-2.35c10.05-11.92,10.9-25.66.29-37.57-.94-1.07.27-2.9,1.11-3.07Z"/>
  <path class="cls-1" d="M702.51,305.16c2.97-.62,9.15,11.55,9.8,14.18,2.8,11.26-1.07,20.76-8.83,28.81l-2.37-2.35c10.05-11.92,10.9-25.66.29-37.57-.94-1.07.27-2.9,1.11-3.07Z"/>
  <path class="cls-1" d="M662.5,305.17l1.35,3.32c-10.9,10.65-10.19,27.05,1.13,37.16l-3.46,2.5c-12.69-12.46-13.23-31.43.97-42.98Z"/>
  <path class="cls-1" d="M333.72,188.84c-1.72,1.49-3.77,1.43-3.76-1.2,0-.73,5.47-7.43,6.51-10.51,2.51-7.43,1.85-14.19-1.92-21.03-.95-1.71-7.55-7.98-3.04-8.94,3.89-.83,10.15,14.73,10.47,18.5.65,7.47-2.49,18.19-8.27,23.19Z"/>
  <rect class="cls-1" x="235" y="39.15" width="4" height="45"/>
  <rect class="cls-1" x="384" y="39.15" width="4" height="45"/>
  <rect class="cls-1" x="804" y="302.15" width="4" height="45"/>
  <rect class="cls-1" x="37" y="302.15" width="4" height="45"/>
  <rect class="cls-1" x="235" y="91.15" width="4" height="45"/>
  <rect class="cls-1" x="384" y="91.15" width="4" height="45"/>
  <rect class="cls-1" x="87" y="302.15" width="4" height="45"/>
  <rect class="cls-1" x="136" y="302.15" width="4" height="45"/>
  <rect class="cls-1" x="235" y="197.15" width="4" height="45"/>
  <rect class="cls-1" x="186" y="302.15" width="4" height="45"/>
  <rect class="cls-1" x="235" y="144.15" width="4" height="45"/>
  <rect class="cls-1" x="285" y="144.15" width="4" height="45"/>
  <rect class="cls-1" x="384" y="144.15" width="4" height="45"/>
  <rect class="cls-1" x="433" y="144.15" width="4" height="45"/>
  <rect class="cls-1" x="532" y="144.15" width="4" height="45"/>
  <rect class="cls-1" x="606" y="302.15" width="4" height="45"/>
  <rect class="cls-1" x="755" y="302.15" width="4" height="45"/>
  <rect class="cls-1" x="37" y="354.15" width="4" height="45"/>
  <rect class="cls-1" x="37" y="197.15" width="4" height="45"/>
  <rect class="cls-1" x="309" y="354.15" width="4" height="45"/>
  <rect class="cls-1" x="384" y="197.15" width="4" height="45"/>
  <rect class="cls-1" x="557" y="197.15" width="4" height="45"/>
  <rect class="cls-1" x="606" y="197.15" width="4" height="45"/>
  <rect class="cls-1" x="557" y="354.15" width="4" height="45"/>
  <rect class="cls-1" x="606" y="354.15" width="4" height="45"/>
  <rect class="cls-1" x="755" y="354.15" width="4" height="45"/>
  <rect class="cls-1" x="903" y="354.15" width="4" height="45"/>
  <rect class="cls-1" x="755" y="407.15" width="4" height="45"/>
  <rect class="cls-1" x="804" y="407.15" width="4" height="45"/>
  <rect class="cls-1" x="37" y="249.15" width="4" height="45"/>
  <rect class="cls-1" x="87" y="249.15" width="4" height="45"/>
  <rect class="cls-1" x="136" y="249.15" width="4" height="45"/>
  <rect class="cls-1" x="186" y="249.15" width="4" height="45"/>
  <rect class="cls-1" x="606" y="249.15" width="4" height="45"/>
  <rect class="cls-1" x="755" y="249.15" width="4" height="45"/>
  <rect class="cls-1" x="1002" y="249.15" width="4" height="45"/>
  <rect class="cls-1" x="274" y="81.15" width="50" height="3"/>
  <rect class="cls-1" x="497" y="344.15" width="50" height="3"/>
  <rect class="cls-1" x="249" y="344.15" width="50" height="3"/>
  <rect class="cls-1" x="942" y="291.15" width="50" height="3"/>
  <rect class="cls-1" x="423" y="81.15" width="49" height="3"/>
  <polygon class="cls-1" points="221 254.16 206.89 290.04 202 290.14 216.91 254.77 221 254.16"/>
  <rect class="cls-1" x="819" y="396.15" width="49" height="3"/>
  <polygon class="cls-1" points="320 307.16 305.89 343.04 301 343.14 315.91 307.77 320 307.16"/>
  <rect class="cls-1" x="819" y="239.15" width="49" height="3"/>
  <rect class="cls-1" x="918" y="344.15" width="49" height="3"/>
  <polygon class="cls-1" points="914 254.16 899.89 290.04 895 290.14 909.91 254.77 914 254.16"/>
  <polygon class="cls-1" points="419 359.16 404.89 395.04 400 395.14 414.91 359.77 419 359.16"/>
  <polygon class="cls-1" points="890 359.16 875.09 394.53 871 395.15 885.11 359.27 890 359.16"/>
  <polygon class="cls-1" points="1013 359.16 998.89 395.04 994 395.14 1008.91 359.77 1013 359.16"/>
  <polygon class="cls-1" points="518 202.16 503.89 238.04 499 238.14 513.91 202.77 518 202.16"/>
  <polygon class="cls-1" points="419 254.16 404.89 290.04 400 290.14 414.91 254.77 419 254.16"/>
  <polygon class="cls-1" points="355.84 96.32 371 132.14 366.98 131.67 352.03 97.61 353.51 96.15 355.84 96.32"/>
  <polygon class="cls-1" points="504.89 96.27 519 132.15 514.91 131.53 500.01 96.65 504.89 96.27"/>
  <path class="cls-1" d="M444,307.16c-4.54,11.99-9.55,23.99-14.97,35.52l-4.02.47,14.91-35.37,4.09-.62Z"/>
  <polygon class="cls-1" points="900.89 307.27 915 343.15 910.91 342.53 896.01 307.65 900.89 307.27"/>
  <path class="cls-1" d="M741,359.16c-4.54,11.99-9.55,23.99-14.97,35.52l-4.02.47,14.91-35.37,4.09-.62Z"/>
  <polygon class="cls-1" points="999.89 307.27 1014 343.15 1009.91 342.53 995.01 307.65 999.89 307.27"/>
  <polygon class="cls-1" points="157.84 202.32 173 238.14 168.98 237.67 154.03 203.61 155.51 202.15 157.84 202.32"/>
  <path class="cls-1" d="M742,290.15l-4.09-.62-14.91-35.37,4.02.47c5.35,11.56,10.39,23.54,14.97,35.52Z"/>
  <path class="cls-1" d="M642,254.16c-4.54,11.99-9.55,23.99-14.97,35.52l-4.02.47,14.91-35.37,4.09-.62Z"/>
  <polygon class="cls-1" points="454.84 359.32 470 395.14 465.98 394.67 451.03 360.61 452.51 359.15 454.84 359.32"/>
  <path class="cls-1" d="M643,395.15l-4.09-.62-14.91-35.37,4.02.47c5.35,11.56,10.39,23.54,14.97,35.52Z"/>
  <polygon class="cls-1" points="306.89 254.27 321 290.15 316.91 289.53 302.01 254.65 306.89 254.27"/>
  <polygon class="cls-1" points="553.84 254.32 569 290.14 564.98 289.67 550.03 255.61 551.51 254.15 553.84 254.32"/>
  <polygon class="cls-1" points="207.89 359.27 222 395.15 217.91 394.53 203.01 359.65 207.89 359.27"/>
  <polygon class="cls-1" points="355.84 254.32 371 290.14 366.98 289.67 352.03 255.61 353.51 254.15 355.84 254.32"/>
  <polygon class="cls-1" points="355.84 359.32 371 395.14 366.98 394.67 352.03 360.61 353.51 359.15 355.84 359.32"/>
  <path class="cls-1" d="M875.84,254.32l15.16,35.82-4.89-.1-14-34.51c-.75-2.29,2.42-1.43,3.73-1.21Z"/>
  <path class="cls-1" d="M346,343.15l-4.09-.62-14.91-35.37,4.02.47c5.35,11.56,10.39,23.54,14.97,35.52Z"/>
  <path class="cls-1" d="M568,307.16l-14.91,35.37-4.09.62c4.78-11.89,9.5-24.01,14.97-35.52l4.02-.47Z"/>
  <path class="cls-1" d="M370,202.16l-14.91,35.37-4.09.62c4.78-11.89,9.5-24.01,14.97-35.52l4.02-.47Z"/>
  <path class="cls-1" d="M469,254.16l-14.91,35.37-4.09.62c4.78-11.89,9.5-24.01,14.97-35.52l4.02-.47Z"/>
  <path class="cls-1" d="M172,359.16l-14.91,35.37-4.09.62c4.78-11.89,9.5-24.01,14.97-35.52l4.02-.47Z"/>
  <rect class="cls-1" x="522" y="239.15" width="25" height="3"/>
  <rect class="cls-1" x="769" y="239.15" width="25" height="3"/>
  <rect class="cls-1" x="101" y="344.15" width="25" height="3"/>
  <rect class="cls-1" x="670" y="344.15" width="25" height="3"/>
  <rect class="cls-1" x="571" y="186.15" width="25" height="3"/>
  <rect class="cls-1" x="447" y="133.15" width="25" height="3"/>
  <rect class="cls-1" x="299" y="186.15" width="25" height="3"/>
  <rect class="cls-1" x="447" y="186.15" width="25" height="3"/>
  <rect class="cls-1" x="299" y="133.15" width="25" height="3"/>
  <rect class="cls-1" x="249" y="291.15" width="25" height="3"/>
  <rect class="cls-1" x="373" y="396.15" width="25" height="3"/>
  <rect class="cls-1" x="819" y="344.15" width="25" height="3"/>
  <rect class="cls-1" x="571" y="396.15" width="25" height="3"/>
  <rect class="cls-1" x="497" y="291.15" width="25" height="3"/>
  <rect class="cls-1" x="670" y="291.15" width="25" height="3"/>
  <rect class="cls-1" x="101" y="239.15" width="25" height="3"/>
  <rect class="cls-1" x="819" y="291.15" width="25" height="3"/>
  <rect class="cls-1" x="769" y="449.15" width="25" height="3"/>
  <polygon class="cls-1" points="809 254.15 808.1 263.57 804 264.16 803.99 254.15 809 254.15"/>
  <path class="cls-1" d="M806.49,383.5c5.11-.01,4.5,8.24-.97,7.72-4.68-.44-3.91-7.71.97-7.72Z"/>
</svg>