<?xml version="1.0" encoding="UTF-8"?>
<svg id="Layer_1" data-name="Layer 1" xmlns="http://www.w3.org/2000/svg" viewBox="0 0 931.45 500.66">
  <defs>
    <style>
      .cls-1 {
        fill: #fff;
      }
    </style>
  </defs>
  <rect class="cls-1" x="83.69" y="217.27" width="100" height="3"/>
  <rect class="cls-1" x="83.69" y="428.27" width="100" height="3"/>
  <rect class="cls-1" x="207.69" y="59.27" width="99" height="3"/>
  <rect class="cls-1" x="207.69" y="270.27" width="99" height="3"/>
  <path class="cls-1" d="M509.55,340.41l7.64,23.87,7.6-23.91,4.9-.09-9.1,28.89c-.48.41-4.34.27-5.26-.03-2.55-.84-8-24.57-10.62-28.37l4.85-.35Z"/>
  <path class="cls-1" d="M590.7,363.27c2.57.41,1.55-.25,2.08-1.41,1.99-4.34,4.12-17.86,6.39-20.61,1.2-1.44,2.94-.97,4.51-.98-3.35,8.94-5.24,18.8-8.85,27.61-.9,2.2-3.55,1.89-5.51,1.24-1.45-.48-10.75-27.8-9.63-28.85.46-.43,3.59-.12,4.51.98,2.25,2.71,4.71,17.71,6.5,22.01Z"/>
  <rect class="cls-1" x="356.69" y="428.27" width="74" height="3"/>
  <path class="cls-1" d="M290.19,178.29c11.84,10.33,13.96,26.33,3.91,38.9-2.45,3.07-3.78,5.5-6.4,1.59,11.19-10.06,10.81-27.68.03-38l2.46-2.48Z"/>
  <path class="cls-1" d="M191.19,231.29c11.84,10.33,13.96,26.33,3.91,38.9-2.45,3.07-3.78,5.5-6.4,1.59,11.19-10.06,10.81-27.68.03-38l2.46-2.48Z"/>
  <path class="cls-1" d="M373.19,336.29l2.46,2.48c-11.33,10.99-11.11,26.95,0,38l-2.46,2.48c-13.74-11.64-13.6-31.2,0-42.96Z"/>
  <path class="cls-1" d="M472.19,73.29l2.46,2.48c-11.33,10.99-11.11,26.95,0,38l-2.46,2.48c-13.74-11.64-13.6-31.2,0-42.96Z"/>
  <path class="cls-1" d="M571.19,178.29l2.46,2.48c-11.33,10.99-11.11,26.95,0,38l-2.46,2.48c-13.74-11.64-13.6-31.2,0-42.96Z"/>
  <path class="cls-1" d="M315.19,73.29c13.45,11.7,13.45,31.25,0,42.95l-2.46-2.48c10.91-10.34,10.88-27.69,0-38l2.46-2.48Z"/>
  <path class="cls-1" d="M513.19,73.29c13.45,11.7,13.45,31.25,0,42.95l-2.46-2.48c10.91-10.34,10.88-27.69,0-38l2.46-2.48Z"/>
  <path class="cls-1" d="M414.19,336.29c13.45,11.7,13.45,31.25,0,42.95l-2.46-2.48c10.91-10.34,10.88-27.69,0-38l2.46-2.48Z"/>
  <path class="cls-1" d="M168.4,377.95c-1.73,1.49-3.77,1.44-3.75-1.19,0-.81,5.16-6.98,6.22-9.81,2.8-7.46,2.35-14.02-1.31-21.06-1.02-1.96-7.8-8.67-3.36-9.62,2.54-.54,8.49,10.43,9.21,12.77,2.84,9.36.6,22.33-7.01,28.9Z"/>
  <rect class="cls-1" x="218.69" y="386.27" width="4" height="45"/>
  <rect class="cls-1" x="69.69" y="386.27" width="4" height="45"/>
  <rect class="cls-1" x="762.69" y="386.27" width="4" height="45"/>
  <rect class="cls-1" x="193.69" y="123.27" width="4" height="45"/>
  <rect class="cls-1" x="341.69" y="123.27" width="4" height="45"/>
  <rect class="cls-1" x="465.69" y="123.27" width="4" height="45"/>
  <rect class="cls-1" x="515.69" y="123.27" width="4" height="45"/>
  <rect class="cls-1" x="663.69" y="123.27" width="4" height="45"/>
  <rect class="cls-1" x="812.69" y="333.27" width="4" height="45"/>
  <rect class="cls-1" x="762.69" y="333.27" width="4" height="45"/>
  <rect class="cls-1" x="713.69" y="333.27" width="4" height="45"/>
  <rect class="cls-1" x="663.69" y="333.27" width="4" height="45"/>
  <rect class="cls-1" x="317.69" y="333.27" width="4" height="45"/>
  <rect class="cls-1" x="193.69" y="175.27" width="4" height="45"/>
  <rect class="cls-1" x="242.69" y="175.27" width="4" height="45"/>
  <rect class="cls-1" x="341.69" y="175.27" width="4" height="45"/>
  <rect class="cls-1" x="391.69" y="175.27" width="4" height="45"/>
  <rect class="cls-1" x="465.69" y="175.27" width="4" height="45"/>
  <rect class="cls-1" x="515.69" y="175.27" width="4" height="45"/>
  <rect class="cls-1" x="614.69" y="175.27" width="4" height="45"/>
  <rect class="cls-1" x="663.69" y="175.27" width="4" height="45"/>
  <rect class="cls-1" x="713.69" y="175.27" width="4" height="45"/>
  <rect class="cls-1" x="762.69" y="175.27" width="4" height="45"/>
  <rect class="cls-1" x="812.69" y="175.27" width="4" height="45"/>
  <rect class="cls-1" x="713.69" y="386.27" width="4" height="45"/>
  <rect class="cls-1" x="193.69" y="70.27" width="4" height="45"/>
  <rect class="cls-1" x="218.69" y="280.27" width="4" height="45"/>
  <rect class="cls-1" x="267.69" y="333.27" width="4" height="45"/>
  <rect class="cls-1" x="218.69" y="333.27" width="4" height="45"/>
  <rect class="cls-1" x="663.69" y="386.27" width="4" height="45"/>
  <rect class="cls-1" x="341.69" y="228.27" width="4" height="45"/>
  <rect class="cls-1" x="391.69" y="228.27" width="4" height="45"/>
  <rect class="cls-1" x="465.69" y="228.27" width="4" height="45"/>
  <rect class="cls-1" x="515.69" y="228.27" width="4" height="45"/>
  <rect class="cls-1" x="663.69" y="228.27" width="4" height="45"/>
  <rect class="cls-1" x="713.69" y="228.27" width="4" height="45"/>
  <rect class="cls-1" x="69.69" y="228.27" width="4" height="45"/>
  <rect class="cls-1" x="812.69" y="228.27" width="4" height="45"/>
  <rect class="cls-1" x="69.69" y="280.27" width="4" height="45"/>
  <rect class="cls-1" x="119.69" y="333.27" width="4" height="45"/>
  <rect class="cls-1" x="69.69" y="333.27" width="4" height="45"/>
  <rect class="cls-1" x="812.69" y="386.27" width="4" height="45"/>
  <rect class="cls-1" x="267.69" y="386.27" width="4" height="45"/>
  <rect class="cls-1" x="762.69" y="228.27" width="4" height="45"/>
  <rect class="cls-1" x="108.69" y="270.27" width="50" height="3"/>
  <rect class="cls-1" x="727.69" y="112.27" width="50" height="3"/>
  <rect class="cls-1" x="281.69" y="322.27" width="50" height="3"/>
  <rect class="cls-1" x="405.69" y="270.27" width="50" height="3"/>
  <rect class="cls-1" x="232.69" y="112.27" width="50" height="3"/>
  <rect class="cls-1" x="405.69" y="112.27" width="50" height="3"/>
  <rect class="cls-1" x="405.69" y="165.27" width="50" height="3"/>
  <rect class="cls-1" x="554.69" y="112.27" width="49" height="3"/>
  <polygon class="cls-1" points="352.68 285.28 338.57 321.15 333.69 321.26 348.59 285.89 352.68 285.28"/>
  <polygon class="cls-1" points="328.69 233.28 313.78 268.65 309.69 269.26 323.8 233.39 328.69 233.28"/>
  <polygon class="cls-1" points="550.68 285.28 536.57 321.15 531.69 321.26 546.59 285.89 550.68 285.28"/>
  <polygon class="cls-1" points="625.69 285.28 610.78 320.65 606.69 321.26 620.8 285.39 625.69 285.28"/>
  <polygon class="cls-1" points="550.68 128.28 536.57 164.15 531.69 164.26 546.59 128.89 550.68 128.28"/>
  <polygon class="cls-1" points="649.68 338.28 635.57 374.15 630.69 374.26 645.59 338.89 649.68 338.28"/>
  <rect class="cls-1" x="554.69" y="270.27" width="49" height="3"/>
  <polygon class="cls-1" points="625.69 391.28 610.78 426.65 606.69 427.26 620.8 391.39 625.69 391.28"/>
  <polygon class="cls-1" points="451.68 391.28 437.57 427.15 432.69 427.26 447.59 391.89 451.68 391.28"/>
  <polygon class="cls-1" points="550.68 391.28 536.57 427.15 531.69 427.26 546.59 391.89 550.68 391.28"/>
  <path class="cls-1" d="M487.52,285.44l15.16,35.82c-1.34,0-2.78.26-4.02-.47-2.38-1.39-11.57-29.78-14.95-34.06-.69-2.34,2.45-1.54,3.8-1.28Z"/>
  <polygon class="cls-1" points="537.57 233.39 551.68 269.26 547.59 268.65 532.69 233.76 537.57 233.39"/>
  <path class="cls-1" d="M190.52,285.44l15.16,35.82c-1.34,0-2.78.26-4.02-.47-2.38-1.39-11.57-29.78-14.95-34.06-.69-2.34,2.45-1.54,3.8-1.28Z"/>
  <polygon class="cls-1" points="438.57 285.39 452.68 321.26 448.59 320.65 433.69 285.76 438.57 285.39"/>
  <path class="cls-1" d="M576.68,321.26l-4.09-.62-14.91-35.36c1.34,0,2.78-.26,4.02.47,1.94,1.14,12.76,30.99,14.98,35.51Z"/>
  <path class="cls-1" d="M674.68,285.28l-14.08,34.41c-.97,1.91-2.96,1.67-4.91,1.58l14.91-35.36,4.09-.62Z"/>
  <path class="cls-1" d="M314.52,128.45c1.66,1.01,11.92,31.84,15.17,35.81l-4.88-.11-14.01-34.5c-.94-2.1,2.94-1.67,3.72-1.2Z"/>
  <path class="cls-1" d="M784.52,285.44l15.16,35.82c-1.34,0-2.78.26-4.02-.47-2.38-1.39-11.57-29.78-14.95-34.06-.69-2.34,2.45-1.54,3.8-1.28Z"/>
  <path class="cls-1" d="M477.68,374.26l-4.09-.62-14.91-35.36c1.34,0,2.78-.26,4.02.47,1.94,1.14,12.76,30.99,14.98,35.51Z"/>
  <path class="cls-1" d="M784.52,128.44l15.16,35.82c-1.34,0-2.78.26-4.02-.47-2.38-1.39-11.57-29.78-14.95-34.06-.69-2.34,2.45-1.54,3.8-1.28Z"/>
  <polygon class="cls-1" points="339.57 391.39 353.68 427.26 349.59 426.65 334.69 391.76 339.57 391.39"/>
  <path class="cls-1" d="M487.52,391.44l15.16,35.82c-1.34,0-2.78.26-4.02-.47-2.38-1.39-11.57-29.78-14.95-34.06-.69-2.34,2.45-1.54,3.8-1.28Z"/>
  <path class="cls-1" d="M576.68,427.26l-4.09-.62-14.91-35.36c1.34,0,2.78-.26,4.02.47,1.94,1.14,12.76,30.99,14.98,35.51Z"/>
  <path class="cls-1" d="M204.69,391.28l-14.91,35.36-4.09.62,14.08-34.41c.97-1.91,2.96-1.67,4.91-1.58Z"/>
  <path class="cls-1" d="M608.69,272.26l.68-3.01c10.03-1.03,2.54-7.51,3.37-10.38,2.76-3.46,6.67-1.38,7.04,2.89.57,6.55-4.66,11.36-11.08,10.51Z"/>
  <rect class="cls-1" x="578.69" y="165.27" width="25" height="3"/>
  <rect class="cls-1" x="257.69" y="165.27" width="25" height="3"/>
  <rect class="cls-1" x="257.69" y="217.27" width="25" height="3"/>
  <rect class="cls-1" x="677.69" y="112.27" width="25" height="3"/>
  <rect class="cls-1" x="133.69" y="375.27" width="25" height="3"/>
  <rect class="cls-1" x="380.69" y="375.27" width="25" height="3"/>
  <rect class="cls-1" x="628.69" y="112.27" width="25" height="3"/>
  <rect class="cls-1" x="479.69" y="112.27" width="25" height="3"/>
  <rect class="cls-1" x="356.69" y="112.27" width="25" height="3"/>
  <rect class="cls-1" x="479.69" y="59.27" width="25" height="3"/>
  <rect class="cls-1" x="356.69" y="270.27" width="25" height="3"/>
  <rect class="cls-1" x="776.69" y="270.27" width="25" height="3"/>
  <rect class="cls-1" x="133.69" y="322.27" width="25" height="3"/>
  <rect class="cls-1" x="479.69" y="270.27" width="25" height="3"/>
  <rect class="cls-1" x="380.69" y="322.27" width="25" height="3"/>
  <rect class="cls-1" x="727.69" y="322.27" width="25" height="3"/>
  <rect class="cls-1" x="578.69" y="217.27" width="25" height="3"/>
  <rect class="cls-1" x="727.69" y="165.27" width="25" height="3"/>
  <rect class="cls-1" x="628.69" y="270.27" width="25" height="3"/>
  <rect class="cls-1" x="677.69" y="270.27" width="25" height="3"/>
  <rect class="cls-1" x="232.69" y="428.27" width="25" height="3"/>
  <rect class="cls-1" x="727.69" y="270.27" width="25" height="3"/>
  <rect class="cls-1" x="504.69" y="428.27" width="25" height="3"/>
  <rect class="cls-1" x="578.69" y="428.27" width="25" height="3"/>
  <rect class="cls-1" x="677.69" y="428.27" width="25" height="3"/>
  <rect class="cls-1" x="776.69" y="428.27" width="25" height="3"/>
  <path class="cls-1" d="M717.69,128.26v10.01s-3.39-.12-3.39-.12c-2.84-.94-1.26-7.44-1.62-9.89h5.01Z"/>
  <path class="cls-1" d="M717.69,285.26v10.01s-3.39-.12-3.39-.12c-2.84-.94-1.26-7.44-1.62-9.89h5.01Z"/>
  <path class="cls-1" d="M272.69,285.27l-1.03,9.98-3.97.02c-.11-3.37.63-6.88-1-9.99h6Z"/>
  <polygon class="cls-1" points="395.69 128.26 395.68 138.27 391.76 138.2 390.68 128.27 395.69 128.26"/>
  <path class="cls-1" d="M618.69,133.26c-4.02.65-7.87-1.61-10-4.98,4.02-.65,7.87,1.61,10,4.98Z"/>
</svg>