<?xml version="1.0" encoding="UTF-8"?>
<svg id="Layer_1" xmlns="http://www.w3.org/2000/svg" version="1.1" viewBox="0 0 88 81.28">
  <!-- Generator: Adobe Illustrator 30.0.0, SVG Export Plug-In . SVG Version: 2.1.1 Build 123)  -->
  <defs>
    <style>
      .st0 {
        fill: #ef3b43;
      }

      .st1 {
        display: none;
      }

      .st1, .st2 {
        fill: #ffd220;
      }

      .st3 {
        fill: #fff;
      }

      .st4 {
        fill: #f99d1c;
      }

      .st5 {
        fill: #3b3c46;
      }
    </style>
  </defs>
  <g>
    <path class="st2" d="M195.76,61.91c2.78-2.78,4.63-6.87,5.01-7.77.78-2.66,2.83-5.62,6.24-5.62,1.84.03,3.55.95,4.6,2.46,1-1.26,1.98-2.25,2.87-2.82,1.17-.79,2.55-1.23,3.96-1.27,1.43,0,2.72.51,3.69,1.46.56-2.48.87-5.06.87-7.71,0-19.19-15.56-34.75-34.75-34.75s-34.75,15.56-34.75,34.75c0,2.81.34,5.53.97,8.15,0,0,.01-.02.02-.03,1.01-1.21,2.45-1.87,4.07-1.87,1.42.03,2.8.48,3.97,1.27.88.57,1.86,1.56,2.86,2.82,1.05-1.51,2.76-2.43,4.6-2.46,3.41,0,5.47,2.96,6.25,5.62.38.9,2.23,4.99,5,7.77,4.24,4.23,5.28,8.59,3.19,13.27,1.25.14,2.53.21,3.82.21,1.45,0,2.88-.1,4.29-.27-2.06-4.65-1-9,3.22-13.21ZM211.75,29.39c1.79,0,3.25,1.46,3.25,3.25s-1.46,3.25-3.25,3.25-3.25-1.46-3.25-3.25,1.46-3.25,3.25-3.25ZM165.25,35.89c-1.79,0-3.25-1.46-3.25-3.25s1.46-3.25,3.25-3.25,3.25,1.46,3.25,3.25-1.46,3.25-3.25,3.25ZM197.92,24.73c2.44-1.29,5.47-.37,6.76,2.07s.37,5.47-2.07,6.76c-1.29.68-1.79-1.94-3.07-2.38h0c-1.15-.41-3.09,1.46-3.7.31,0,0,0,0,0,0-1.29-2.44-.37-5.47,2.07-6.76ZM172.92,33.57c-2.44-1.29-3.37-4.32-2.07-6.76s4.32-3.37,6.76-2.07c2.44,1.29,3.37,4.32,2.07,6.76,0,0,0,0,0,0-.61,1.15-2.56-.72-3.7-.32h.01c-1.28.45-1.79,3.07-3.07,2.39ZM188.01,55.18h0,0c-3.17,0-5.63-.92-7.53-2.3,0,0,0,0,0,0-.28-.21-.55-.42-.81-.65-.09-.08-.17-.16-.26-.24-.22-.2-.43-.41-.63-.62-.07-.08-.14-.15-.21-.23-.25-.28-.49-.57-.71-.87-.04-.05-.08-.11-.12-.16-.2-.28-.39-.56-.56-.85-.03-.05-.06-.1-.09-.15-1.48-2.49-2.09-5.25-2.09-7.2,0-1.13.37-1.54,1.02-1.53h.02c.08,0,.15,0,.24.02.01,0,.02,0,.03,0,.08.01.16.03.25.05h.06c.08.04.16.06.25.09.03,0,.06.02.08.03.08.03.16.06.25.09.04.02.08.03.13.05.07.03.15.06.23.09.07.03.14.06.22.1.05.02.1.04.15.07.74.34,1.61.79,2.57,1.25.11.05.22.11.34.16.14.06.28.13.42.19.22.1.45.2.69.3.11.05.23.1.35.14.26.1.52.2.78.3.1.04.21.07.31.11.28.1.57.19.86.28.09.03.18.05.27.08.31.09.63.16.95.23.07.01.14.03.21.04.35.07.69.12,1.05.16.04,0,.08,0,.12.01.38.04.77.06,1.16.06,0,0,0,0,.01,0,.14,0,.28-.02.42-.02.28-.01.56-.02.84-.05.18-.02.36-.06.54-.08.23-.04.47-.06.7-.11.13-.03.25-.06.37-.09.28-.06.56-.13.83-.21.05-.02.11-.04.16-.05,1.9-.57,3.62-1.43,5.04-2.13.75-.37,1.41-.69,1.97-.9.11-.04.22-.08.32-.11.07-.02.14-.04.21-.06,1.01-.27,1.59.02,1.59,1.43,0,0,0,0,0,.01,0,.33-.02.68-.06,1.05-.01.12-.03.23-.04.35-.03.28-.08.56-.13.85-.03.13-.05.26-.08.4-.08.35-.17.71-.27,1.07-.02.07-.03.14-.06.2-.13.42-.29.85-.46,1.28-.05.13-.12.27-.18.4-.14.31-.28.61-.44.92-.08.15-.16.3-.24.45-.19.33-.39.65-.61.97-.07.1-.13.2-.2.3-.29.4-.61.79-.95,1.16-.1.11-.21.21-.32.32-.26.27-.54.52-.84.77-.08.06-.14.14-.21.2,0,0,0-.01-.01-.02-1.94,1.53-4.51,2.58-7.88,2.58h0Z"/>
    <path class="st4" d="M232.31,63.7c-.28-1.11-.9-2.1-1.78-2.82,1.34-2.25,1.01-5.12-.8-7-.99-1.07-2.39-1.66-3.94-1.66-.19,0-.38.03-.57.04,1.05-3.34,1.66-6.88,1.76-10.55.02-.35.02-.71.02-1.07,0-21.4-17.35-38.75-38.75-38.75s-38.75,17.35-38.75,38.75c0,4.03.62,7.92,1.76,11.58h-.04c-1.55,0-2.95.59-3.94,1.66-1.82,1.88-2.14,4.75-.8,7-.89.72-1.51,1.71-1.79,2.82-.24.9-.48,2.8.8,4.74-.98,1.5-1.12,3.39-.37,5.02,1.02,2.32,3.57,4.14,8.52,6.1,3.07,1.22,5.89,2,5.91,2.01,3.56.98,7.23,1.52,10.93,1.6,5.23,0,9.12-1.45,11.61-4.27,1.67.27,3.38.43,5.11.47.17,0,.35,0,.53,0,.17.01.34.01.52.01.8,0,1.6-.03,2.39-.09h.03c1.41-.08,2.8-.25,4.17-.48,2.49,2.87,6.4,4.35,11.68,4.35,3.69-.08,7.37-.62,10.93-1.6.02-.01,2.84-.79,5.92-2.01,4.94-1.96,7.49-3.78,8.51-6.1.74-1.63.6-3.52-.37-5.02,1.28-1.94,1.04-3.84.8-4.74ZM222.13,48.35c-.97-.95-2.27-1.46-3.69-1.46-1.42.03-2.79.47-3.96,1.27-.89.57-1.87,1.56-2.87,2.82-1.05-1.52-2.76-2.43-4.6-2.46-3.41,0-5.46,2.96-6.24,5.62-.38.9-2.23,4.99-5.01,7.77-4.22,4.21-5.28,8.55-3.22,13.2-.71.09-1.41.16-2.13.21-.72.04-1.44.07-2.16.07h-.48c-.16-.01-.32-.01-.49-.01-.96-.03-1.91-.1-2.85-.21,2.09-4.67,1.05-9.03-3.19-13.26-2.77-2.78-4.62-6.87-5-7.77-.78-2.66-2.84-5.62-6.25-5.62-1.84.03-3.56.94-4.6,2.46-1-1.26-1.98-2.25-2.86-2.82-1.18-.8-2.55-1.24-3.97-1.27-1.62,0-3.06.66-4.07,1.87,0,0,0,.02-.02.03-.63-2.62-.97-5.34-.97-8.15,0-19.19,15.56-34.75,34.75-34.75s34.75,15.56,34.75,34.75c0,.33,0,.66-.01.99-.07,2.3-.37,4.55-.86,6.72Z"/>
    <path class="st2" d="M228.21,70.7c.1.2.15.4.14.6-.03,1.29-2.15,2.63-4.59,3.75-3.33,1.52-7.26,2.63-7.31,2.65-2.2.56-6.1,1.46-9.92,1.46h-.09c-.43,0-.85-.02-1.28-.04-.04,0-.08,0-.13,0-.41-.03-.81-.07-1.21-.12-.06-.01-.12-.02-.18-.03-.38-.06-.75-.12-1.12-.21-.08,0-.16-.04-.24-.06-.33-.09-.67-.17-.99-.29-.11-.03-.22-.09-.32-.13-.29-.1-.57-.21-.83-.34-.15-.08-.29-.17-.43-.25t-.02-.01c-.2-.12-.41-.23-.6-.36-.2-.14-.38-.31-.57-.47-.12-.11-.25-.2-.36-.31-.29-.29-.56-.61-.79-.95-.28-.42-.53-.82-.75-1.22-1.11-1.99-1.41-3.77-.81-5.56.43-1.31,1.35-2.63,2.78-4.05,3.77-3.78,5.97-9.3,5.97-9.3,0,0,.23-.91.73-1.72,0,0,.02-.02.03-.04.04-.07.09-.13.14-.2,0-.03.03-.05.05-.08.04-.05.09-.11.13-.16.03-.03.06-.07.09-.1.04-.04.08-.08.13-.12.03-.04.07-.07.11-.11.04-.03.08-.06.12-.09.05-.03.1-.06.15-.09.04-.02.08-.05.12-.06.05-.03.11-.05.16-.07.04-.02.08-.03.12-.04.06-.02.12-.03.18-.03.05,0,.09-.02.14-.02.09,0,.18,0,.27.02h.02c1.87.29,3.24,5.08-.67,8.01-.22.16-.41.32-.57.48-.04.04-.08.07-.12.11-.31.31-.53.61-.66.89,0,.03-.03.06-.04.09-.11.27-.15.52-.12.74,0,.03,0,.05.01.08.02.11.05.21.1.3t0,0c.04.09.11.17.18.25.02.02.04.04.06.06.07.07.16.14.25.2,0,0,.02,0,.04.02.08.04.17.09.27.12.04,0,.07.02.1.03.11.04.23.06.34.08h.05c.08,0,.16.02.24.02.02,0,.03-.01.05-.01.19,0,.39-.03.59-.09.02,0,.04-.01.05-.02.17-.05.33-.12.48-.21.05-.02.1-.05.15-.09.11-.07.21-.16.32-.25.05-.05.1-.1.15-.15.13-.15.25-.31.35-.49,1.51-2.75,5.63-9.82,7.76-11.18.22-.15.44-.25.65-.35.07-.03.14-.06.21-.09.2-.08.39-.14.57-.17.04-.01.07-.01.11-.01.15-.02.29-.03.42-.02.06,0,.11,0,.16.02.15.03.29.08.41.15.03.02.05.05.08.07.09.07.18.15.25.25.03.05.07.09.09.14.08.13.15.29.2.47,0,.04,0,.09,0,.13.04.16.05.34.06.54,0,.07,0,.16,0,.24-.01.25-.03.52-.08.83-.06.35-.26.76-.55,1.21-1.96,3.07-8.29,8.14-8.06,9.64,0,.06.03.11.06.16.04.08.11.15.18.2,0,0,0,0,0,.02.07.05.14.08.21.11,0,0,0,.01.02.01.08.02.17.04.26.04,0,0,.02,0,.03,0,.12,0,.26-.03.4-.07.04-.01.07-.02.11-.04.15-.05.3-.12.45-.2.03-.02.07-.04.11-.06.13-.08.27-.16.41-.25.02-.02.05-.04.07-.06.1-.06.19-.13.29-.2l.15-.12s.08-.06.12-.09c.13-.11.26-.22.38-.33.02-.02.04-.03.07-.06.1-.09.19-.17.28-.25l.06-.06c.09-.08.16-.15.21-.2t.03-.04s.07-.06.07-.06c0,0,.03-.03.04-.04.02-.02.04-.03.06-.06.04-.03.09-.08.15-.13.05-.04.1-.09.16-.14.01,0,.01,0,.02-.02.73-.64,2.32-2,4.1-3.31.02,0,.03-.02.05-.04.29-.21.58-.41.87-.62.05-.03.09-.06.14-.09.23-.16.47-.32.7-.47.1-.06.19-.13.29-.19.13-.08.27-.17.4-.25.16-.09.32-.19.48-.28.13-.07.26-.15.39-.22.15-.07.29-.15.42-.22.02,0,.03-.01.05-.02.11-.05.21-.1.32-.15.17-.08.35-.15.52-.22.06-.03.13-.05.2-.08.2-.07.39-.12.57-.17.05,0,.11-.02.16-.03.19-.04.36-.06.52-.07.04,0,.08.01.12.01.17,0,.34.02.48.08,0,0,.03,0,.04.02.15.06.29.14.4.27.54.58.69,1.14.54,1.7-.21.76-.98,1.53-2.13,2.37-1.32.95-3.14,2.01-5.21,3.26-.54.32-1.01.62-1.45.9-1.7,1.07-2.7,1.83-3.23,2.43-.52.6-.57,1.05-.39,1.5.04.12.1.24.18.37.08.12.28.12.58.04h0c1.27-.39,4.26-2.45,7.04-3.93.06-.03.11-.06.17-.09.16-.08.32-.17.48-.25.19-.09.37-.18.54-.26.13-.06.26-.12.39-.17.13-.06.26-.12.38-.17.11-.04.21-.09.31-.12.2-.08.4-.15.59-.21.08-.03.16-.05.24-.07.14-.04.28-.08.42-.11.07-.01.13-.02.2-.04.18-.03.35-.04.51-.05.06,0,.11.01.17.01.1,0,.2,0,.29.03.06.01.11.02.16.03.12.04.23.08.33.15.05.02.09.07.13.1.06.05.11.1.16.16.03.05.07.09.1.15.05.09.1.2.14.32,0,.02.02.05.03.08.03.13.05.25.06.37.08,1.44-1.58,2.51-3.63,3.43-3.05,1.36-6.98,2.4-7.4,3.84h0c-.02.09-.04.17-.04.25,0,.09,0,.18.04.27,0,.05.04.08.06.13.01.03.02.07.04.1.03.05.06.08.09.12.02.02.05.05.07.06.03.03.07.06.11.08.03.02.07.03.1.05.04.01.07.02.11.03.06,0,.13.02.2.02.02,0,.03,0,.05,0h0c.11,0,.23-.02.35-.04.02,0,.03,0,.05,0,.12-.03.24-.06.37-.1,0,0,.03,0,.05,0,1.24-.41,2.99-1.51,4.65-2.35l.18-.09c.1-.05.2-.1.3-.15.16-.08.32-.15.48-.22.05-.02.1-.04.15-.06.13-.06.25-.11.38-.15.05-.02.1-.04.14-.06.16-.05.31-.1.45-.14.01,0,.03,0,.04,0,.16-.05.32-.08.47-.11.03,0,.05,0,.08,0,.13-.02.25-.03.37-.03h.08c.28,0,.53.06.74.17,0,0,.02,0,.02,0,.11.06.21.14.3.23.09.1.18.21.25.35Z"/>
    <path class="st2" d="M181.5,70.71c-.02,1.2-.42,2.43-1.18,3.76-.2.36-.42.73-.68,1.11-.24.34-.5.66-.79.95-.15.15-.33.28-.5.42-.14.12-.28.25-.43.35-.21.15-.44.28-.67.4-.04.02-.07.04-.11.06-.09.06-.18.12-.27.17-.26.13-.54.23-.82.34-.11.04-.22.1-.34.14-.31.1-.63.19-.96.27-.09.02-.18.05-.27.07-.36.09-.73.15-1.1.2-.07,0-.13.03-.2.04-.4.05-.8.09-1.21.11-.04.01-.09.01-.13.02-.43.02-.86.03-1.29.04h-.08c-3.81,0-7.72-.9-9.91-1.46,0,0-.02-.01-.05-.02-.53-.15-5.18-1.5-8.49-3.23-.09-.05-.19-.09-.28-.14,0,0,0,0-.02,0-1.39-.76-2.5-1.57-2.91-2.39,0-.03-.02-.07-.04-.1-.03-.07-.06-.14-.07-.2-.09-.31-.06-.61.1-.91.07-.13.15-.24.23-.34.01-.01.02-.01.03-.02.08-.09.17-.16.27-.21,0,0,.02,0,.04-.02.21-.11.46-.17.74-.17h.08c.12,0,.24.01.36.03.03,0,.06,0,.09,0,.15.03.3.06.45.1.04.02.08.03.12.04.12.04.23.07.35.11.07.03.15.06.22.08.08.04.17.07.26.11.36.15.74.32,1.12.52,1.67.84,3.45,1.96,4.71,2.37.02.01.04.02.06.02.13.04.25.07.36.1.02,0,.04,0,.05,0,.13.02.25.04.35.04h.02s.03,0,.05,0c.07,0,.13-.01.2-.02.03-.01.05-.02.08-.03.05,0,.1-.04.14-.06.03-.02.05-.03.08-.05.04-.03.07-.07.11-.11.02-.03.04-.05.05-.07.03-.05.06-.11.08-.17,0-.03.03-.05.04-.08.02-.09.03-.18.03-.27,0-1.72-4.99-2.84-8.27-4.48-1.65-.84-2.87-1.8-2.8-3.04,0-.12.02-.24.06-.37,0-.03.02-.05.02-.07.05-.13.1-.25.16-.35.02-.04.05-.08.07-.11.07-.08.14-.15.21-.21.03-.02.06-.05.09-.07.1-.06.22-.11.34-.15.05-.01.1-.02.15-.03.09-.02.2-.03.3-.03.06,0,.11-.01.17-.01.16.01.33.02.51.05.06.02.13.03.2.04.13.03.27.07.42.11.08.02.15.04.23.07.2.06.39.13.59.21.1.03.21.08.31.12.13.05.26.11.39.17.13.05.25.11.38.17.18.08.36.17.54.26.16.08.33.17.49.25.05.03.11.06.16.09,2.79,1.48,5.78,3.54,7.04,3.92,0,0,0,0,0,0,.21.06.38.08.48.03.04,0,.08-.04.1-.07,0-.02,0-.03.02-.04.68-1.14.27-1.99-4.43-4.86-.17-.1-.32-.2-.49-.3-5.21-3.16-8.88-5.06-6.8-7.33.11-.12.25-.21.4-.27.02-.01.03-.02.05-.02.14-.06.31-.08.49-.08.04,0,.07-.01.11-.01.16.01.33.03.51.06.06.02.12.03.19.05.17.04.35.09.54.16.08.03.16.06.24.09.07.03.15.06.22.09.08.04.16.07.25.11.12.05.24.11.36.17.15.08.3.15.45.23.11.06.23.13.35.2.18.1.36.2.54.31.12.08.24.15.35.23.19.12.38.24.57.36.13.09.26.17.38.26.13.09.26.18.38.27.19.12.37.25.55.39.11.08.23.16.34.25.18.13.35.26.52.39.13.09.25.18.37.28.11.09.23.18.34.27.17.13.33.26.49.38.1.09.21.17.31.25.13.11.25.21.37.31.12.09.22.18.33.27.1.09.21.17.3.26.1.08.19.15.27.23.1.08.2.16.28.24.03.02.06.05.09.07.02.02.04.04.07.06.1.09.2.18.28.25.03.03.06.05.09.08.07.06.14.12.19.16,0,.02.02.03.03.04.03.02.06.05.06.05,0,0,.02.02.06.06l.04.04c.05.05.12.12.21.2l.06.06c.08.08.18.17.29.26.02.02.03.03.05.05.13.11.26.22.4.34.03.02.06.04.09.07.15.11.31.23.46.34.02,0,.04.02.05.03.15.1.3.2.45.28.03.02.06.04.09.05.15.08.31.15.46.21.03.01.06.02.1.03.14.04.29.07.42.07,0,0,.01,0,.02,0,.28,0,.52-.1.68-.38.03-.05.04-.1.05-.16.28-1.71-8.13-8.15-8.61-10.85-.06-.32-.08-.6-.09-.86v-.18c0-.24.02-.46.06-.65,0-.01,0-.02,0-.03.05-.2.12-.36.2-.51.03-.04.05-.07.07-.1.09-.12.18-.22.29-.29.02,0,.03-.03.05-.04.13-.08.27-.13.42-.16.05,0,.1,0,.15-.02.14-.01.28,0,.43.02.04,0,.07,0,.11.01.18.03.38.09.58.17.06.03.12.06.18.08.22.1.44.21.67.36,2.14,1.36,6.25,8.43,7.76,11.18.11.2.25.37.39.53.05.05.1.09.15.14.11.1.22.18.34.26.05.03.1.07.15.09.17.09.34.17.52.21h0c.18.05.35.07.52.07.02,0,.04.01.06.01.08,0,.15-.01.23-.02h.07c.11-.02.22-.04.32-.07.04-.02.08-.03.11-.04.1-.03.19-.07.27-.12.01-.01.03-.02.05-.03.09-.05.17-.12.24-.19l.06-.06c.07-.08.14-.16.18-.25t0,0c.05-.09.08-.19.1-.3,0-.03,0-.05,0-.08,0-.06.02-.11.02-.17s0-.12-.02-.18c-.02-.12-.06-.26-.12-.39,0-.03-.03-.07-.04-.1-.07-.13-.14-.27-.25-.42,0,0,0,0,0,0-.1-.14-.24-.29-.39-.44-.04-.04-.08-.08-.13-.12-.16-.16-.34-.32-.56-.48-1.96-1.47-2.6-3.39-2.51-4.99.08-1.6.89-2.87,1.83-3.02.1-.02.19-.02.29-.02.05,0,.1.01.15.02.05.01.1.01.15.03.06,0,.11.03.17.05.04,0,.08.03.11.05.06.02.12.06.17.09.03.02.06.04.09.06.06.04.12.08.18.13.02.02.04.03.05.05.07.06.13.12.18.18l.04.04c.06.07.12.14.18.22h0c.64.87.93,2.01.93,2.01,0,0,2.2,5.52,5.98,9.3,2.12,2.12,3.11,4,3.08,5.96Z"/>
    <g>
      <path class="st5" d="M195.85,31.5c.61,1.15,2.55-.72,3.7-.32h0c1.28.45,1.78,3.07,3.07,2.39,2.44-1.29,3.37-4.32,2.07-6.76s-4.32-3.37-6.76-2.07c-2.44,1.29-3.37,4.32-2.07,6.76,0,0,0,0,0,0Z"/>
      <path class="st5" d="M175.99,31.19h-.01c1.14-.41,3.09,1.46,3.7.31,0,0,0,0,0,0,1.29-2.44.37-5.47-2.07-6.76-2.44-1.29-5.47-.37-6.76,2.07s-.37,5.47,2.07,6.76c1.28.68,1.79-1.94,3.07-2.38Z"/>
      <path class="st5" d="M185.77,48.4c.4-.12.81.57,1.24,1.28.4.68.82,1.37,1.24,1.37.45,0,.9-.68,1.33-1.35.45-.7.89-1.38,1.32-1.25,2.14.68,3.93,2.17,4.99,4.15.08-.06.15-.12.22-.18.29-.25.57-.5.84-.77.11-.11.22-.21.32-.32.34-.37.66-.76.95-1.16.07-.1.13-.2.2-.3.22-.32.42-.64.61-.97.08-.15.16-.3.24-.45.16-.3.31-.61.44-.92.06-.13.12-.27.18-.4.17-.43.33-.86.46-1.28.02-.07.04-.14.06-.2.11-.36.2-.72.27-1.07.03-.14.05-.27.08-.4.05-.29.1-.57.13-.85.01-.12.03-.24.04-.35.04-.37.06-.72.06-1.05,0,0,0,0,0-.01,0-1.41-.58-1.7-1.59-1.43-.07.02-.14.04-.21.06-.1.03-.21.07-.32.11-.56.21-1.23.53-1.97.9l-.14.07c-1.39.69-3.06,1.51-4.9,2.06-.05.02-.11.04-.16.05-.27.08-.55.14-.83.21-.13.03-.25.06-.37.09-.23.05-.46.07-.7.11-.18.03-.36.06-.54.08-.28.03-.56.04-.84.05-.14,0-.28.02-.42.02h0s0,0,0,0c-.39,0-.78-.02-1.16-.06-.04,0-.08,0-.12-.01-.35-.04-.7-.1-1.05-.16-.07-.01-.14-.03-.21-.04-.32-.07-.64-.15-.95-.23-.09-.02-.18-.05-.27-.08-.29-.08-.58-.18-.86-.28-.1-.04-.21-.07-.31-.11-.26-.1-.52-.2-.78-.3-.12-.05-.23-.1-.35-.14-.23-.1-.46-.2-.69-.3-.14-.06-.28-.13-.42-.19-.12-.05-.23-.11-.34-.16-.44-.21-.86-.41-1.25-.61-.47-.23-.91-.45-1.32-.64-.05-.02-.1-.04-.15-.07-.07-.03-.15-.07-.22-.1-.08-.03-.15-.06-.23-.09-.04-.02-.08-.03-.13-.05-.09-.03-.17-.06-.25-.09-.03,0-.06-.02-.08-.03-.09-.03-.17-.05-.25-.08h-.06c-.09-.04-.17-.05-.25-.07-.01,0-.02,0-.03,0-.08-.01-.16-.02-.24-.02h-.02c-.65,0-1.01.41-1.01,1.53,0,1.95.6,4.71,2.08,7.2.03.05.06.1.09.15.17.29.36.57.56.85.04.05.08.11.12.16.22.3.46.59.71.87.07.08.14.15.21.23.2.21.41.42.63.62.09.08.17.16.26.24.26.22.53.44.81.64,1.07-2.16,2.98-3.79,5.3-4.48Z"/>
    </g>
    <g>
      <circle class="st4" cx="211.75" cy="32.64" r="3.25"/>
      <circle class="st4" cx="165.25" cy="32.64" r="3.25"/>
    </g>
    <path class="st0" d="M190.9,48.45c-.43-.13-.87.55-1.32,1.25-.43.67-.88,1.35-1.33,1.35-.42,0-.84-.69-1.24-1.37-.43-.71-.84-1.4-1.24-1.28-2.31.7-4.23,2.32-5.3,4.48,1.9,1.38,4.37,2.3,7.53,2.3,3.37,0,5.94-1.04,7.88-2.58-1.06-1.98-2.85-3.47-4.99-4.15Z"/>
  </g>
  <g>
    <path class="st1" d="M51.26,60.02c2.78-2.78,4.63-6.87,5.01-7.77.78-2.66,2.83-5.62,6.24-5.62,1.84.03,3.55.95,4.6,2.46,1-1.26,1.98-2.25,2.87-2.82,1.17-.79,2.55-1.23,3.96-1.27,1.43,0,2.72.51,3.69,1.46.56-2.48.87-5.06.87-7.71,0-19.19-15.56-34.75-34.75-34.75S9,19.56,9,38.75c0,2.81.34,5.53.97,8.15,0,0,.01-.02.02-.03,1.01-1.21,2.45-1.87,4.07-1.87,1.42.03,2.8.48,3.97,1.27.88.57,1.86,1.56,2.86,2.82,1.05-1.51,2.76-2.43,4.6-2.46,3.41,0,5.47,2.96,6.25,5.62.38.9,2.23,4.99,5,7.77,4.24,4.23,5.28,8.59,3.19,13.27,1.25.14,2.53.21,3.82.21,1.45,0,2.88-.1,4.29-.27-2.06-4.65-1-9,3.22-13.21ZM67.25,27.5c1.79,0,3.25,1.46,3.25,3.25s-1.46,3.25-3.25,3.25-3.25-1.46-3.25-3.25,1.46-3.25,3.25-3.25ZM20.75,34c-1.79,0-3.25-1.46-3.25-3.25s1.46-3.25,3.25-3.25,3.25,1.46,3.25,3.25-1.46,3.25-3.25,3.25ZM53.42,22.84c2.44-1.29,5.47-.37,6.76,2.07s.37,5.47-2.07,6.76c-1.29.68-1.79-1.94-3.07-2.38h0c-1.15-.41-3.09,1.46-3.7.31,0,0,0,0,0,0-1.29-2.44-.37-5.47,2.07-6.76ZM28.42,31.68c-2.44-1.29-3.37-4.32-2.07-6.76s4.32-3.37,6.76-2.07c2.44,1.29,3.37,4.32,2.07,6.76,0,0,0,0,0,0-.61,1.15-2.56-.72-3.7-.32h.01c-1.28.45-1.79,3.07-3.07,2.39ZM43.51,53.29h0,0c-3.17,0-5.63-.92-7.53-2.3,0,0,0,0,0,0-.28-.21-.55-.42-.81-.65-.09-.08-.17-.16-.26-.24-.22-.2-.43-.41-.63-.62-.07-.08-.14-.15-.21-.23-.25-.28-.49-.57-.71-.87-.04-.05-.08-.11-.12-.16-.2-.28-.39-.56-.56-.85-.03-.05-.06-.1-.09-.15-1.48-2.49-2.09-5.25-2.09-7.2,0-1.13.37-1.54,1.02-1.53h.02c.08,0,.15,0,.24.02.01,0,.02,0,.03,0,.08.01.16.03.25.05h.06c.08.04.16.06.25.09.03,0,.06.02.08.03.08.03.16.06.25.09.04.02.08.03.13.05.07.03.15.06.23.09.07.03.14.06.22.1.05.02.1.04.15.07.74.34,1.61.79,2.57,1.25.11.05.22.11.34.16.14.06.28.13.42.19.22.1.45.2.69.3.11.05.23.1.35.14.26.1.52.2.78.3.1.04.21.07.31.11.28.1.57.19.86.28.09.03.18.05.27.08.31.09.63.16.95.23.07.01.14.03.21.04.35.07.69.12,1.05.16.04,0,.08,0,.12.01.38.04.77.06,1.16.06,0,0,0,0,.01,0,.14,0,.28-.02.42-.02.28-.01.56-.02.84-.05.18-.02.36-.06.54-.08.23-.04.47-.06.7-.11.13-.03.25-.06.37-.09.28-.06.56-.13.83-.21.05-.02.11-.04.16-.05,1.9-.57,3.62-1.43,5.04-2.13.75-.37,1.41-.69,1.97-.9.11-.04.22-.08.32-.11.07-.02.14-.04.21-.06,1.01-.27,1.59.02,1.59,1.43,0,0,0,0,0,.01,0,.33-.02.68-.06,1.05-.01.12-.03.23-.04.35-.03.28-.08.56-.13.85-.03.13-.05.26-.08.4-.08.35-.17.71-.27,1.07-.02.07-.03.14-.06.2-.13.42-.29.85-.46,1.28-.05.13-.12.27-.18.4-.14.31-.28.61-.44.92-.08.15-.16.3-.24.45-.19.33-.39.65-.61.97-.07.1-.13.2-.2.3-.29.4-.61.79-.95,1.16-.1.11-.21.21-.32.32-.26.27-.54.52-.84.77-.08.06-.14.14-.21.2,0,0,0-.01-.01-.02-1.94,1.53-4.51,2.58-7.88,2.58h0Z"/>
    <g>
      <path class="st3" d="M87.81,61.81c-.28-1.11-.9-2.1-1.78-2.82,1.34-2.25,1.01-5.12-.8-7-.99-1.07-2.39-1.66-3.94-1.66-.19,0-.38.03-.57.04,1.05-3.34,1.66-6.88,1.76-10.55.02-.35.02-.71.02-1.07C82.5,17.35,65.15,0,43.75,0S5,17.35,5,38.75c0,4.03.62,7.92,1.76,11.58h-.04c-1.55,0-2.95.59-3.94,1.66-1.82,1.88-2.14,4.75-.8,7-.89.72-1.51,1.71-1.79,2.82-.24.9-.48,2.8.8,4.74-.98,1.5-1.12,3.39-.37,5.02,1.02,2.32,3.57,4.14,8.52,6.1,3.07,1.22,5.89,2,5.91,2.01,3.56.98,7.23,1.52,10.93,1.6,5.23,0,9.12-1.45,11.61-4.27,1.67.27,3.38.43,5.11.47.17,0,.35,0,.53,0,.17,0,.34,0,.52,0,.8,0,1.6-.03,2.39-.09h.03c1.41-.08,2.8-.25,4.17-.48,2.49,2.87,6.4,4.35,11.68,4.35,3.69-.08,7.37-.62,10.93-1.6.02-.01,2.84-.79,5.92-2.01,4.94-1.96,7.49-3.78,8.51-6.1.74-1.63.6-3.52-.37-5.02,1.28-1.94,1.04-3.84.8-4.74ZM35.82,72.58c-.2.36-.42.73-.68,1.11-.24.34-.5.66-.79.95-.15.15-.33.28-.5.42-.14.12-.28.25-.43.35-.21.15-.44.28-.67.4-.04.02-.07.04-.11.06-.09.06-.18.12-.27.17-.26.13-.54.23-.82.34-.11.04-.22.1-.34.14-.31.1-.63.19-.96.27-.09.02-.18.05-.27.07-.36.09-.73.15-1.1.2-.07,0-.13.03-.2.04-.4.05-.8.09-1.21.11-.04.01-.09.01-.13.02-.43.02-.86.03-1.29.04h-.08c-3.81,0-7.72-.9-9.91-1.46,0,0-.02-.01-.05-.02-.53-.15-5.18-1.5-8.49-3.23-.09-.05-.19-.09-.28-.14,0,0,0,0-.02,0-1.39-.76-2.5-1.57-2.91-2.39,0-.03-.02-.07-.04-.1-.03-.07-.06-.14-.07-.2-.09-.31-.06-.61.1-.91.07-.13.15-.24.23-.34.01-.01.02-.01.03-.02.08-.09.17-.16.27-.21,0,0,.02,0,.04-.02.21-.11.46-.17.74-.17h.08c.12,0,.24.01.36.03.03,0,.06,0,.09,0,.15.03.3.06.45.1.04.02.08.03.12.04.12.04.23.07.35.11.07.03.15.06.22.08.08.04.17.07.26.11.36.15.74.32,1.12.52,1.67.84,3.45,1.96,4.71,2.37.02.01.04.02.06.02.13.04.25.07.36.1.02,0,.04,0,.05,0,.13.02.25.04.35.04h.02s.03,0,.05,0c.07,0,.13,0,.2-.02.03-.01.05-.02.08-.03.05,0,.1-.04.14-.06.03-.02.05-.03.08-.05.04-.03.07-.07.11-.11.02-.03.04-.05.05-.07.03-.05.06-.11.08-.17,0-.03.03-.05.04-.08.02-.09.03-.18.03-.27,0-1.72-4.99-2.84-8.27-4.48-1.65-.84-2.87-1.8-2.8-3.04,0-.12.02-.24.06-.37,0-.03.02-.05.02-.07.05-.13.1-.25.16-.35.02-.04.05-.08.07-.11.07-.08.14-.15.21-.21.03-.02.06-.05.09-.07.1-.06.22-.11.34-.15.05,0,.1-.02.15-.03.09-.02.2-.03.3-.03.06,0,.11-.01.17-.01.16.01.33.02.51.05.06.02.13.03.2.04.13.03.27.07.42.11.08.02.15.04.23.07.2.06.39.13.59.21.1.03.21.08.31.12.13.05.26.11.39.17.13.05.25.11.38.17.18.08.36.17.54.26.16.08.33.17.49.25.05.03.11.06.16.09,2.79,1.48,5.78,3.54,7.04,3.92,0,0,0,0,0,0,.21.06.38.08.48.03.04,0,.08-.04.1-.07,0-.02,0-.03.02-.04.68-1.14.27-1.99-4.43-4.86-.17-.1-.32-.2-.49-.3-5.21-3.16-8.88-5.06-6.8-7.33.11-.12.25-.21.4-.27.02-.01.03-.02.05-.02.14-.06.31-.08.49-.08.04,0,.07,0,.11,0,.16,0,.33.03.51.06.06.02.12.03.19.05.17.04.35.09.54.16l.24.09c.07.03.15.06.22.09.08.04.16.07.25.11.12.05.24.11.36.17.15.08.3.15.45.23.11.06.23.13.35.2.18.1.36.2.54.31.12.08.24.15.35.23.19.12.38.24.57.36.13.09.26.17.38.26.13.09.26.18.38.27.19.12.37.25.55.39.11.08.23.16.34.25.18.13.35.26.52.39.13.09.25.18.37.28.11.09.23.18.34.27.17.13.33.26.49.38.1.09.21.17.31.25.13.11.25.21.37.31.12.09.22.18.33.27.1.09.21.17.3.26.1.08.19.15.27.23.1.08.2.16.28.24.03.02.06.05.09.07.02.02.04.04.07.06.1.09.2.18.28.25.03.03.06.05.09.08.07.06.14.12.19.16,0,.02.02.03.03.04.03.02.06.05.06.05l.06.06.04.04s.12.12.21.2l.06.06c.08.08.18.17.29.26l.05.05c.13.11.26.22.4.34.03.02.06.04.09.07.15.11.31.23.46.34.02,0,.04.02.05.03.15.1.3.2.45.28.03.02.06.04.09.05.15.08.31.15.46.21.03.01.06.02.1.03.14.04.29.07.42.07,0,0,.01,0,.02,0,.28,0,.52-.1.68-.38.03-.05.04-.1.05-.16.28-1.71-8.13-8.15-8.61-10.85-.06-.32-.08-.6-.09-.86v-.18c0-.24.02-.46.06-.65,0,0,0-.02,0-.03.05-.2.12-.36.2-.51.03-.04.05-.07.07-.1.09-.12.18-.22.29-.29.02,0,.03-.03.05-.04.13-.08.27-.13.42-.16.05,0,.1,0,.15-.02.14-.01.28,0,.43.02.04,0,.07,0,.11,0,.18.03.38.09.58.17.06.03.12.06.18.08.22.1.44.21.67.36,2.14,1.36,6.25,8.43,7.76,11.18.11.2.25.37.39.53.05.05.1.09.15.14.11.1.22.18.34.26.05.03.1.07.15.09.17.09.34.17.52.21h0c.18.05.35.07.52.07.02,0,.04.01.06.01.08,0,.15-.01.23-.02h.07c.11-.02.22-.04.32-.07.04-.02.08-.03.11-.04.1-.03.19-.07.27-.12.01-.01.03-.02.05-.03.09-.05.17-.12.24-.19l.06-.06c.07-.08.14-.16.18-.25t0,0c.05-.09.08-.19.1-.3,0-.03,0-.05,0-.08,0-.06.02-.11.02-.17s0-.12-.02-.18c-.02-.12-.06-.26-.12-.39,0-.03-.03-.07-.04-.1-.07-.13-.14-.27-.25-.42,0,0,0,0,0,0-.1-.14-.24-.29-.39-.44-.04-.04-.08-.08-.13-.12-.16-.16-.34-.32-.56-.48-1.96-1.47-2.6-3.39-2.51-4.99.08-1.6.89-2.87,1.83-3.02.1-.02.19-.02.29-.02.05,0,.1.01.15.02s.1,0,.15.03c.06,0,.11.03.17.05.04,0,.08.03.11.05.06.02.12.06.17.09.03.02.06.04.09.06.06.04.12.08.18.13.02.02.04.03.05.05.07.06.13.12.18.18l.04.04c.06.07.12.14.18.22h0c.64.87.93,2.01.93,2.01,0,0,2.2,5.52,5.98,9.3,2.12,2.12,3.11,4,3.08,5.96-.02,1.2-.42,2.43-1.18,3.76ZM48.04,73.22c-.71.09-1.41.16-2.13.21-.72.04-1.44.07-2.16.07h-.48c-.16,0-.32,0-.49,0-.96-.03-1.91-.1-2.85-.21,2.09-4.67,1.05-9.03-3.19-13.26-2.77-2.78-4.62-6.87-5-7.77-.78-2.66-2.84-5.62-6.25-5.62-1.84.03-3.56.94-4.6,2.46-1-1.26-1.98-2.25-2.86-2.82-1.18-.8-2.55-1.24-3.97-1.27-1.62,0-3.06.66-4.07,1.87,0,0,0,.02-.02.03-.63-2.62-.97-5.34-.97-8.15C9,19.56,24.56,4,43.75,4s34.75,15.56,34.75,34.75c0,.33,0,.66-.01.99-.07,2.3-.37,4.55-.86,6.72-.97-.95-2.27-1.46-3.69-1.46-1.42.03-2.79.47-3.96,1.27-.89.57-1.87,1.56-2.87,2.82-1.05-1.52-2.76-2.43-4.6-2.46-3.41,0-5.46,2.96-6.24,5.62-.38.9-2.23,4.99-5.01,7.77-4.22,4.21-5.28,8.55-3.22,13.2ZM72.97,70.99s.04.08.06.13c.01.03.02.07.04.1.03.05.06.08.09.12.02.02.05.05.07.06.03.03.07.06.11.08.03.02.07.03.1.05.04,0,.07.02.11.03.06,0,.13.02.2.02.02,0,.03,0,.05,0h0c.11,0,.23-.02.35-.04.02,0,.03,0,.05,0,.12-.03.24-.06.37-.1,0,0,.03,0,.05,0,1.24-.41,2.99-1.51,4.65-2.35.06-.03.12-.06.18-.09.1-.05.2-.1.3-.15.16-.08.32-.15.48-.22.05-.02.1-.04.15-.06.13-.06.25-.11.38-.15.05-.02.1-.04.14-.06.16-.05.31-.1.45-.14.01,0,.03,0,.04,0,.16-.05.32-.08.47-.11.03,0,.05,0,.08,0,.13-.02.25-.03.37-.03h.08c.28,0,.53.06.74.17,0,0,.02,0,.02,0,.11.06.21.14.3.23.09.1.18.21.25.35.1.2.15.4.14.6-.03,1.29-2.15,2.63-4.59,3.75-3.33,1.52-7.26,2.63-7.31,2.65-2.2.56-6.1,1.46-9.92,1.46h-.09c-.43,0-.85-.02-1.28-.04-.04,0-.08,0-.13,0-.41-.03-.81-.07-1.21-.12-.06-.01-.12-.02-.18-.03-.38-.06-.75-.12-1.12-.21-.08,0-.16-.04-.24-.06-.33-.09-.67-.17-.99-.29-.11-.03-.22-.09-.32-.13-.29-.1-.57-.21-.83-.34-.15-.08-.29-.17-.43-.25t-.02,0c-.2-.12-.41-.23-.6-.36-.2-.14-.38-.31-.57-.47-.12-.11-.25-.2-.36-.31-.29-.29-.56-.61-.79-.95-.28-.42-.53-.82-.75-1.22-1.11-1.99-1.41-3.77-.81-5.56.43-1.31,1.35-2.63,2.78-4.05,3.77-3.78,5.97-9.3,5.97-9.3,0,0,.23-.91.73-1.72,0,0,.02-.02.03-.04.04-.07.09-.13.14-.2,0-.03.03-.05.05-.08.04-.05.09-.11.13-.16.03-.03.06-.07.09-.1.04-.04.08-.08.13-.12.03-.04.07-.07.11-.11.04-.03.08-.06.12-.09.05-.03.1-.06.15-.09.04-.02.08-.05.12-.06.05-.03.11-.05.16-.07.04-.02.08-.03.12-.04.06-.02.12-.03.18-.03.05,0,.09-.02.14-.02.09,0,.18,0,.27.02h.02c1.87.29,3.24,5.08-.67,8.01-.22.16-.41.32-.57.48-.04.04-.08.07-.12.11-.31.31-.53.61-.66.89,0,.03-.03.06-.04.09-.11.27-.15.52-.12.74,0,.03,0,.05.01.08.02.11.05.21.1.3t0,0c.04.09.11.17.18.25l.06.06c.07.07.16.14.25.2,0,0,.02,0,.04.02.08.04.17.09.27.12.04,0,.07.02.1.03.11.04.23.06.34.08h.05c.08,0,.16.02.24.02.02,0,.03-.01.05-.01.19,0,.39-.03.59-.09.02,0,.04,0,.05-.02.17-.05.33-.12.48-.21.05-.02.1-.05.15-.09.11-.07.21-.16.32-.25l.15-.15c.13-.15.25-.31.35-.49,1.51-2.75,5.63-9.82,7.76-11.18.22-.15.44-.25.65-.35.07-.03.14-.06.21-.09.2-.08.39-.14.57-.17.04,0,.07,0,.11,0,.15-.02.29-.03.42-.02.06,0,.11,0,.16.02.15.03.29.08.41.15.03.02.05.05.08.07.09.07.18.15.25.25.03.05.07.09.09.14.08.13.15.29.2.47,0,.04,0,.09,0,.13.04.16.05.34.06.54,0,.07,0,.16,0,.24-.01.25-.03.52-.08.83-.06.35-.26.76-.55,1.21-1.96,3.07-8.29,8.14-8.06,9.64,0,.06.03.11.06.16.04.08.11.15.18.2,0,0,0,0,0,.02.07.05.14.08.21.11,0,0,0,0,.02,0,.08.02.17.04.26.04,0,0,.02,0,.03,0,.12,0,.26-.03.4-.07.04,0,.07-.02.11-.04.15-.05.3-.12.45-.2.03-.02.07-.04.11-.06.13-.08.27-.16.41-.25.02-.02.05-.04.07-.06.1-.06.19-.13.29-.2l.15-.12s.08-.06.12-.09c.13-.11.26-.22.38-.33.02-.02.04-.03.07-.06.1-.09.19-.17.28-.25l.06-.06c.09-.08.16-.15.21-.2t.03-.04s.07-.06.07-.06c0,0,.03-.03.04-.04.02-.02.04-.03.06-.06.04-.03.09-.08.15-.13.05-.04.1-.09.16-.14.01,0,.01,0,.02-.02.73-.64,2.32-2,4.1-3.31.02,0,.03-.02.05-.04.29-.21.58-.41.87-.62.05-.03.09-.06.14-.09.23-.16.47-.32.7-.47.1-.06.19-.13.29-.19.13-.08.27-.17.4-.25.16-.09.32-.19.48-.28.13-.07.26-.15.39-.22.15-.07.29-.15.42-.22.02,0,.03-.01.05-.02.11-.05.21-.1.32-.15.17-.08.35-.15.52-.22.06-.03.13-.05.2-.08.2-.07.39-.12.57-.17.05,0,.11-.02.16-.03.19-.04.36-.06.52-.07.04,0,.08,0,.12,0,.17,0,.34.02.48.08,0,0,.03,0,.04.02.15.06.29.14.4.27.54.58.69,1.14.54,1.7-.21.76-.98,1.53-2.13,2.37-1.32.95-3.14,2.01-5.21,3.26-.54.32-1.01.62-1.45.9-1.7,1.07-2.7,1.83-3.23,2.43-.52.6-.57,1.05-.39,1.5.04.12.1.24.18.37.08.12.28.12.58.04h0c1.27-.39,4.26-2.45,7.04-3.93.06-.03.11-.06.17-.09.16-.08.32-.17.48-.25.19-.09.37-.18.54-.26.13-.06.26-.12.39-.17.13-.06.26-.12.38-.17.11-.04.21-.09.31-.12.2-.08.4-.15.59-.21.08-.03.16-.05.24-.07.14-.04.28-.08.42-.11.07-.01.13-.02.2-.04.18-.03.35-.04.51-.05.06,0,.11.01.17.01.1,0,.2,0,.29.03.06.01.11.02.16.03.12.04.23.08.33.15.05.02.09.07.13.1.06.05.11.1.16.16.03.05.07.09.1.15.05.09.1.2.14.32,0,.02.02.05.03.08.03.13.05.25.06.37.08,1.44-1.58,2.51-3.63,3.43-3.05,1.36-6.98,2.4-7.4,3.84h0c-.02.09-.04.17-.04.25,0,.09,0,.18.04.27Z"/>
      <path class="st1" d="M72.97,70.47c.42-1.44,4.35-2.48,7.4-3.84,2.05-.92,3.71-1.99,3.63-3.43-.01-.12-.03-.24-.06-.37,0-.03-.02-.06-.03-.08-.04-.12-.09-.23-.14-.32-.03-.06-.07-.1-.1-.15-.05-.06-.1-.11-.16-.16-.04-.03-.08-.08-.13-.1-.1-.07-.21-.11-.33-.15-.05,0-.1-.02-.16-.03-.09-.02-.19-.03-.29-.03-.06,0-.11-.01-.17-.01-.16.01-.33.02-.51.05-.07.02-.13.03-.2.04-.14.03-.28.07-.42.11-.08.02-.16.04-.24.07-.19.06-.39.13-.59.21-.1.03-.2.08-.31.12-.12.05-.25.11-.38.17-.13.05-.26.11-.39.17-.17.08-.35.17-.54.26-.16.08-.32.17-.48.25-.06.03-.11.06-.17.09-2.78,1.48-5.77,3.54-7.04,3.92h0c-.3.09-.5.09-.58-.03-.08-.13-.14-.25-.18-.37-.18-.45-.13-.9.39-1.5.53-.6,1.53-1.36,3.23-2.43.44-.28.91-.58,1.45-.9,2.07-1.25,3.89-2.31,5.21-3.26,1.15-.84,1.92-1.61,2.13-2.37.15-.56,0-1.12-.54-1.7-.11-.13-.25-.21-.4-.27-.01-.01-.03-.02-.04-.02-.14-.06-.31-.08-.48-.08-.04,0-.08,0-.12,0-.16,0-.33.03-.52.07-.05,0-.11.02-.16.03-.18.05-.37.1-.57.17-.07.03-.14.05-.2.08-.17.07-.35.14-.52.22-.11.05-.21.1-.32.15-.02,0-.03.02-.05.02-.13.07-.27.15-.42.22-.13.07-.26.15-.39.22-.16.09-.32.19-.48.28-.13.08-.27.17-.4.25-.1.06-.19.13-.29.19-.23.15-.47.31-.7.47-.05.03-.09.06-.14.09-.29.21-.58.41-.87.62-.02.02-.03.03-.05.04-1.78,1.31-3.37,2.67-4.1,3.31,0,.01,0,.02-.02.02-.06.05-.11.1-.16.14-.06.05-.11.1-.15.13-.02.03-.04.04-.06.06-.01,0-.04.04-.04.04,0,0-.03.02-.07.06t-.03.04s-.12.12-.21.2l-.06.06c-.09.08-.18.16-.28.25-.03.03-.05.04-.07.06-.12.11-.25.22-.38.33-.04.03-.08.05-.12.09l-.15.12c-.1.07-.19.14-.29.2-.02.02-.05.04-.07.06-.14.09-.28.17-.41.25-.04.02-.08.04-.11.06-.15.08-.3.15-.45.2-.04.02-.07.03-.11.04-.14.04-.28.07-.4.07-.01,0-.02,0-.03,0-.09,0-.18-.02-.26-.04-.01,0-.01,0-.02,0-.07-.03-.14-.06-.21-.11,0,0,0,0,0-.02-.07-.05-.14-.12-.18-.2-.03-.05-.05-.1-.06-.16-.23-1.5,6.1-6.57,8.06-9.64.29-.45.49-.86.55-1.21.05-.31.07-.58.08-.83,0-.08,0-.17,0-.24,0-.2-.02-.38-.06-.54,0-.04,0-.09,0-.13-.05-.18-.12-.34-.2-.47-.02-.05-.06-.09-.09-.14-.07-.1-.16-.18-.25-.25-.03-.02-.05-.05-.08-.07-.12-.07-.26-.12-.41-.15-.05,0-.1,0-.16-.02-.13-.01-.27,0-.42.02-.04,0-.07,0-.11,0-.18.03-.37.09-.57.17-.07.03-.14.06-.21.09-.21.1-.43.2-.65.35-2.13,1.36-6.25,8.43-7.76,11.18-.1.18-.22.34-.35.49l-.15.15c-.11.09-.21.18-.32.25-.05.04-.1.07-.15.09-.15.09-.31.16-.48.21-.01,0-.03.02-.05.02-.2.06-.4.09-.59.09-.02,0-.03.01-.05.01-.08,0-.16-.01-.24-.02h-.05c-.11-.02-.23-.04-.34-.08-.03,0-.06-.02-.1-.03-.1-.03-.19-.08-.27-.12-.02-.01-.03-.02-.04-.02-.09-.06-.18-.13-.25-.2l-.06-.06c-.07-.08-.14-.16-.18-.25t0,0c-.05-.09-.08-.19-.1-.3-.01-.03-.01-.05-.01-.08-.03-.22.01-.47.12-.74,0-.03.03-.06.04-.09.13-.28.35-.58.66-.89.04-.04.08-.07.12-.11.16-.16.35-.32.57-.48,3.91-2.93,2.54-7.72.67-8.01h-.02c-.09-.02-.18-.02-.27-.02-.05,0-.09.01-.14.02-.06,0-.12,0-.18.03-.04,0-.08.02-.12.04-.05.02-.11.04-.16.07-.04,0-.08.04-.12.06-.05.03-.1.06-.15.09-.04.03-.08.06-.12.09-.04.04-.08.07-.11.11-.05.04-.09.08-.13.12-.03.03-.06.07-.09.1-.04.05-.09.11-.13.16-.02.03-.04.05-.05.08-.05.07-.1.13-.14.2,0,.02-.02.03-.03.04-.5.81-.73,1.72-.73,1.72,0,0-2.2,5.52-5.97,9.3-1.43,1.42-2.35,2.74-2.78,4.05-.6,1.79-.3,3.57.81,5.56.22.4.47.8.75,1.22.23.34.5.66.79.95.11.11.24.2.36.31.19.16.37.33.57.47.19.13.4.24.6.36t.02,0c.14.08.28.17.43.25.26.13.54.24.83.34.1.04.21.1.32.13.32.12.66.2.99.29.08.02.16.05.24.06.37.09.74.15,1.12.21.06,0,.12.02.18.03.4.05.8.09,1.21.12.05,0,.09,0,.13,0,.43.02.85.03,1.28.04h.09c3.82,0,7.72-.9,9.92-1.46.05-.02,3.98-1.13,7.31-2.65,2.44-1.12,4.56-2.46,4.59-3.75,0-.2-.04-.4-.14-.6-.07-.14-.16-.25-.25-.35-.09-.09-.19-.17-.3-.23,0,0-.01,0-.02,0-.21-.11-.46-.17-.74-.17h-.08c-.12,0-.24.01-.37.03-.03,0-.05,0-.08,0-.15.03-.31.06-.47.11,0,0-.03,0-.04,0-.14.04-.29.09-.45.14-.04.02-.09.04-.14.06-.13.04-.25.09-.38.15-.05.02-.1.04-.15.06-.16.07-.32.14-.48.22-.1.05-.2.1-.3.15-.06.03-.12.06-.18.09-1.66.84-3.41,1.94-4.65,2.35-.02,0-.04,0-.05,0-.13.04-.25.07-.37.1-.02,0-.03,0-.05,0-.12.02-.24.04-.35.04h0s-.03,0-.05,0c-.07,0-.14,0-.2-.02-.04-.01-.07-.02-.11-.03-.03-.02-.07-.03-.1-.05-.04-.02-.08-.05-.11-.08-.02,0-.05-.04-.07-.06-.03-.04-.06-.07-.09-.12-.02-.03-.03-.07-.04-.1-.02-.05-.05-.08-.06-.13-.03-.09-.04-.18-.04-.27,0-.08.02-.16.04-.24h0Z"/>
      <path class="st1" d="M27.94,53.56s-.29-1.14-.93-2h0c-.06-.09-.12-.16-.18-.23l-.04-.04c-.05-.06-.11-.12-.18-.18,0-.02-.03-.03-.05-.05-.06-.05-.12-.09-.18-.13-.03-.02-.06-.04-.09-.06-.05-.03-.11-.07-.17-.09-.03-.02-.07-.04-.11-.05-.06-.02-.11-.04-.17-.05-.05-.02-.1-.02-.15-.03s-.1-.02-.15-.02c-.1,0-.19,0-.29.02-.94.15-1.75,1.42-1.83,3.02-.09,1.6.55,3.52,2.51,4.99.22.16.4.32.56.48.05.04.09.08.13.12.15.15.29.3.39.44,0,0,0,0,0,0,.11.15.18.29.25.42,0,.03.03.07.04.1.06.13.1.27.12.39,0,.06.02.12.02.18s0,.11-.02.17c0,.03,0,.05,0,.08-.02.11-.05.21-.1.3t0,0c-.04.09-.11.17-.18.25l-.06.06c-.07.07-.15.14-.24.19-.02,0-.04.02-.05.03-.08.05-.17.09-.27.12-.03,0-.07.02-.11.04-.1.03-.21.05-.32.07h-.07c-.08,0-.15.02-.23.02-.02,0-.04-.01-.06-.01-.17,0-.34-.02-.52-.07h0c-.18-.04-.35-.12-.52-.21-.05-.02-.1-.06-.15-.09-.12-.08-.23-.16-.34-.26-.05-.05-.1-.09-.15-.14-.14-.16-.28-.33-.39-.53-1.51-2.75-5.62-9.82-7.76-11.18-.23-.15-.45-.26-.67-.36-.06-.02-.12-.05-.18-.08-.2-.08-.4-.14-.58-.17-.04,0-.07,0-.11,0-.15-.02-.29-.03-.43-.02-.05,0-.1,0-.15.02-.15.03-.29.08-.42.16-.02,0-.03.03-.05.04-.11.07-.2.17-.29.29-.02.03-.04.06-.07.1-.08.15-.15.31-.2.51,0,.01,0,.02,0,.03-.04.19-.06.41-.06.65v.18c0,.26.03.54.09.86.48,2.7,8.89,9.14,8.61,10.85,0,.06-.02.11-.05.16-.16.28-.4.38-.68.38,0,0-.02,0-.02,0-.13,0-.28-.03-.42-.07-.04,0-.07-.02-.1-.03-.15-.06-.31-.13-.46-.21-.03,0-.06-.03-.09-.05-.15-.08-.3-.18-.45-.28,0,0-.03-.02-.05-.03-.15-.11-.31-.23-.46-.34-.03-.03-.06-.05-.09-.07-.14-.12-.27-.23-.4-.34l-.05-.05c-.11-.09-.21-.18-.29-.26l-.06-.06c-.09-.08-.16-.15-.21-.2l-.04-.04-.06-.06s-.03-.03-.06-.05c0,0-.02-.02-.03-.04-.05-.04-.12-.1-.19-.16-.03-.03-.06-.05-.09-.08-.08-.07-.18-.16-.28-.25-.03-.02-.05-.04-.07-.06-.03-.02-.06-.05-.09-.07-.08-.08-.18-.16-.28-.24-.08-.08-.17-.15-.27-.23-.09-.09-.2-.17-.3-.26-.11-.09-.21-.18-.33-.27-.12-.1-.24-.2-.37-.31-.1-.08-.21-.16-.31-.25-.16-.12-.32-.25-.49-.38-.11-.09-.23-.18-.34-.27-.12-.1-.24-.19-.37-.28-.17-.13-.34-.26-.52-.39-.11-.09-.23-.17-.34-.25-.18-.14-.36-.27-.55-.39-.12-.09-.25-.18-.38-.27-.12-.09-.25-.17-.38-.26-.19-.12-.38-.24-.57-.36-.11-.08-.23-.15-.35-.23-.18-.11-.36-.21-.54-.31-.12-.07-.24-.14-.35-.2-.15-.08-.3-.15-.45-.23-.12-.06-.24-.12-.36-.17-.09-.04-.17-.07-.25-.11-.07-.03-.15-.06-.22-.09l-.24-.09c-.19-.07-.37-.12-.54-.16-.07-.02-.13-.03-.19-.05-.18-.03-.35-.05-.51-.06-.04,0-.07,0-.11,0-.18,0-.35.02-.49.08-.02,0-.03,0-.05.02-.15.06-.29.15-.4.27-2.08,2.27,1.59,4.17,6.8,7.33.17.1.32.2.49.3,4.7,2.87,5.11,3.72,4.43,4.86,0,0,0,.02-.02.04-.02.03-.06.06-.1.07-.1.05-.27.03-.48-.03,0,0,0,0,0,0-1.26-.38-4.25-2.44-7.04-3.92-.05-.03-.11-.06-.16-.09-.16-.08-.33-.17-.49-.25-.18-.09-.36-.18-.54-.26-.13-.06-.25-.12-.38-.17-.13-.06-.26-.12-.39-.17-.1-.04-.21-.09-.31-.12-.2-.08-.39-.15-.59-.21-.08-.03-.15-.05-.23-.07-.15-.04-.29-.08-.42-.11-.07-.01-.14-.02-.2-.04-.18-.03-.35-.04-.51-.05-.06,0-.11.01-.17.01-.1,0-.21,0-.3.03-.05.01-.1.02-.15.03-.12.04-.24.09-.34.15-.03.02-.06.05-.09.07-.07.06-.14.13-.21.21-.02.03-.05.07-.07.11-.06.1-.11.22-.16.35,0,.02-.02.04-.02.07-.04.13-.06.25-.06.37-.07,1.24,1.15,2.2,2.8,3.04,3.28,1.64,8.26,2.76,8.27,4.48,0,.09,0,.18-.03.27-.01.03-.03.05-.04.08-.02.06-.05.12-.08.17,0,.02-.03.04-.05.07-.04.04-.07.08-.11.11-.03.02-.05.03-.08.05-.04.02-.09.05-.14.06-.03,0-.05.02-.08.03-.07,0-.13.02-.2.02-.02,0-.03,0-.05,0h-.02c-.1,0-.22-.02-.35-.04,0,0-.03,0-.05,0-.11-.03-.23-.06-.36-.1-.02,0-.04,0-.06-.02-1.26-.41-3.04-1.53-4.71-2.37-.38-.2-.76-.37-1.12-.52-.09-.04-.18-.07-.26-.11-.07-.02-.15-.05-.22-.08-.12-.04-.23-.07-.35-.11-.04,0-.08-.02-.12-.04-.15-.04-.3-.07-.45-.1-.03,0-.06,0-.09,0-.12-.02-.24-.03-.36-.03h-.08c-.28,0-.53.06-.74.17-.02,0-.03,0-.04.02-.1.05-.19.12-.27.21,0,0-.02,0-.03.02-.08.1-.16.21-.23.34-.16.3-.19.6-.1.91.01.06.04.13.07.2.02.03.03.07.04.1.41.82,1.52,1.63,2.91,2.39,0,0,.02,0,.02,0,.09.05.19.09.28.14,3.31,1.73,7.96,3.08,8.49,3.23.03,0,.04.02.05.02,2.19.56,6.1,1.46,9.91,1.46h.08c.43,0,.86-.02,1.29-.04.04,0,.09,0,.13-.02.41-.02.81-.06,1.21-.11.07-.01.13-.03.2-.04.37-.05.74-.11,1.1-.2.09-.02.18-.05.27-.07.33-.08.65-.17.96-.27.12-.04.23-.1.34-.14.28-.11.56-.21.82-.34.09-.05.18-.11.27-.17.04-.02.07-.04.11-.06.23-.12.46-.25.67-.4.15-.1.29-.23.43-.35.17-.14.35-.27.5-.42.29-.29.55-.61.79-.95.26-.38.48-.75.68-1.11.76-1.33,1.16-2.56,1.18-3.76.03-1.96-.96-3.84-3.08-5.96-3.78-3.78-5.98-9.3-5.98-9.3Z"/>
    </g>
    <g>
      <path class="st3" d="M51.35,29.61c.61,1.15,2.55-.72,3.7-.32h0c1.28.45,1.78,3.07,3.07,2.39,2.44-1.29,3.37-4.32,2.07-6.76s-4.32-3.37-6.76-2.07c-2.44,1.29-3.37,4.32-2.07,6.76,0,0,0,0,0,0Z"/>
      <path class="st3" d="M31.49,29.3h-.01c1.14-.41,3.09,1.46,3.7.31,0,0,0,0,0,0,1.29-2.44.37-5.47-2.07-6.76-2.44-1.29-5.47-.37-6.76,2.07s-.37,5.47,2.07,6.76c1.28.68,1.79-1.94,3.07-2.38Z"/>
      <path class="st3" d="M41.27,46.51c.4-.12.81.57,1.24,1.28.4.68.82,1.37,1.24,1.37.45,0,.9-.68,1.33-1.35.45-.7.89-1.38,1.32-1.25,2.14.68,3.93,2.17,4.99,4.15.08-.06.15-.12.22-.18.29-.25.57-.5.84-.77.11-.11.22-.21.32-.32.34-.37.66-.76.95-1.16.07-.1.13-.2.2-.3.22-.32.42-.64.61-.97.08-.15.16-.3.24-.45.16-.3.31-.61.44-.92.06-.13.12-.27.18-.4.17-.43.33-.86.46-1.28.02-.07.04-.14.06-.2.11-.36.2-.72.27-1.07.03-.14.05-.27.08-.4.05-.29.1-.57.13-.85.01-.12.03-.24.04-.35.04-.37.06-.72.06-1.05,0,0,0,0,0-.01,0-1.41-.58-1.7-1.59-1.43-.07.02-.14.04-.21.06-.1.03-.21.07-.32.11-.56.21-1.23.53-1.97.9l-.14.07c-1.39.69-3.06,1.51-4.9,2.06-.05.02-.11.04-.16.05-.27.08-.55.14-.83.21-.13.03-.25.06-.37.09-.23.05-.46.07-.7.11-.18.03-.36.06-.54.08-.28.03-.56.04-.84.05-.14,0-.28.02-.42.02h0s0,0,0,0c-.39,0-.78-.02-1.16-.06-.04,0-.08,0-.12-.01-.35-.04-.7-.1-1.05-.16-.07-.01-.14-.03-.21-.04-.32-.07-.64-.15-.95-.23-.09-.02-.18-.05-.27-.08-.29-.08-.58-.18-.86-.28-.1-.04-.21-.07-.31-.11-.26-.1-.52-.2-.78-.3-.12-.05-.23-.1-.35-.14-.23-.1-.46-.2-.69-.3-.14-.06-.28-.13-.42-.19-.12-.05-.23-.11-.34-.16-.44-.21-.86-.41-1.25-.61-.47-.23-.91-.45-1.32-.64-.05-.02-.1-.04-.15-.07-.07-.03-.15-.07-.22-.1-.08-.03-.15-.06-.23-.09-.04-.02-.08-.03-.13-.05-.09-.03-.17-.06-.25-.09-.03,0-.06-.02-.08-.03-.09-.03-.17-.05-.25-.08h-.06c-.09-.04-.17-.05-.25-.07-.01,0-.02,0-.03,0-.08-.01-.16-.02-.24-.02h-.02c-.65,0-1.01.41-1.01,1.53,0,1.95.6,4.71,2.08,7.2.03.05.06.1.09.15.17.29.36.57.56.85.04.05.08.11.12.16.22.3.46.59.71.87.07.08.14.15.21.23.2.21.41.42.63.62.09.08.17.16.26.24.26.22.53.44.81.64,1.07-2.16,2.98-3.79,5.3-4.48Z"/>
    </g>
    <g>
      <circle class="st3" cx="67.25" cy="30.75" r="3.25"/>
      <circle class="st3" cx="20.75" cy="30.75" r="3.25"/>
    </g>
    <path class="st3" d="M46.4,46.56c-.43-.13-.87.55-1.32,1.25-.43.67-.88,1.35-1.33,1.35-.42,0-.84-.69-1.24-1.37-.43-.71-.84-1.4-1.24-1.28-2.31.7-4.23,2.32-5.3,4.48,1.9,1.38,4.37,2.3,7.53,2.3,3.37,0,5.94-1.04,7.88-2.58-1.06-1.98-2.85-3.47-4.99-4.15Z"/>
  </g>
</svg>